<svg xmlns="http://www.w3.org/2000/svg" viewBox="0 0 32 32">
  <defs>
    <linearGradient id="emberTile" x1="4" y1="0" x2="28" y2="32" gradientUnits="userSpaceOnUse">
      <stop offset="0" stop-color="#F26A4F"/>
      <stop offset="1" stop-color="#E0533D"/>
    </linearGradient>
  </defs>
  <rect width="32" height="32" rx="9" fill="url(#emberTile)"/>
  <g transform="translate(16 16) scale(.625) translate(-16 -16)">
    <path d="M16 27c5.5 0 9-3.6 9-8.4 0-3.4-2-5.7-3.6-7.7C19.4 8.3 17 6 16 3c-1 3-3.4 5.3-5.4 7.9C9 12.9 7 15.2 7 18.6 7 23.4 10.5 27 16 27Z" fill="#ffffff"/>
    <path d="M16 27c3.1 0 5-2.2 5-4.9 0-2-1.2-3.4-2.3-4.7-1.2-1.4-2.4-2.8-2.7-4.6-.4 1.8-1.6 3.2-2.8 4.6C12 18.7 11 20.1 11 22.1 11 24.8 12.9 27 16 27Z" fill="#E0533D"/>
  </g>
</svg>
